
<svg version="1.0" xmlns="http://www.w3.org/2000/svg"
 width="225.000000pt" height="225.000000pt" viewBox="0 0 225.000000 225.000000"
 preserveAspectRatio="xMidYMid meet">

<g transform="translate(0.000000,225.000000) scale(0.100000,-0.100000)"
fill="#0043fa" stroke="none">
<path d="M1340 1500 c0 -16 -9 -39 -19 -49 -18 -18 -107 -51 -136 -51 -36 0
-118 -35 -144 -61 -25 -25 -31 -39 -31 -75 0 -25 7 -58 15 -74 16 -32 31 -41
21 -13 -4 9 -2 31 4 49 13 38 46 56 152 83 133 33 178 68 178 136 0 25 -25 85
-35 85 -3 0 -5 -13 -5 -30z m-10 -95 c0 -14 -60 -40 -137 -60 -49 -12 -97 -25
-108 -29 -19 -7 -19 -7 -2 7 10 8 48 23 85 32 37 9 87 25 112 35 25 10 46 18
48 19 1 1 2 -1 2 -4z"/>
<path d="M952 1237 c-20 -24 -26 -83 -12 -117 16 -39 61 -62 170 -90 125 -32
150 -50 150 -108 l1 -37 19 24 c24 28 26 90 5 131 -20 38 -54 55 -162 81 -133
32 -144 40 -155 113 -3 17 -4 17 -16 3z m158 -152 c67 -16 130 -40 130 -49 0
-2 -30 5 -67 15 -38 11 -87 24 -110 29 -22 6 -52 19 -65 31 l-23 20 30 -14
c17 -8 64 -22 105 -32z"/>
<path d="M1180 946 c0 -48 -32 -70 -141 -95 -104 -24 -139 -40 -168 -77 -27
-35 -28 -99 -1 -139 l20 -30 0 42 c0 51 28 77 109 98 135 37 166 49 193 75 32
33 37 83 13 130 -20 39 -25 38 -25 -4z m-29 -112 c-13 -9 -64 -27 -115 -40
-50 -12 -100 -25 -111 -29 -11 -3 -6 2 10 11 17 10 70 27 118 40 49 12 91 25
94 28 4 3 11 6 17 6 6 0 0 -7 -13 -16z"/>
</g>
</svg>
